<svg width="100" height="84" viewBox="0 0 100 84" fill="none" xmlns="http://www.w3.org/2000/svg">
<path d="M7.45416 68.9779C-0.132266 65.3558 20.9157 0.0637611 6.71924 0.000768339C5.38037 -0.0174217 4.06777 0.37299 2.95647 1.11994C2.04431 1.73649 1.29763 2.56774 0.782106 3.54057C0.266582 4.51341 -0.00199133 5.59802 1.11158e-05 6.699V66.7731C1.11158e-05 70.8341 2.88928 73.8976 6.71924 73.8976C21.6422 73.8976 36.6114 75.2918 45.5774 83.7665C45.7 83.8829 45.8542 83.9608 46.0207 83.9904C46.1873 84.0199 46.3588 83.9999 46.5141 83.9328C46.6693 83.8657 46.8014 83.7545 46.894 83.6129C46.9865 83.4713 47.0354 83.3057 47.0346 83.1365L46.0207 22.2574C47.1569 86.0762 9.9013 70.1233 7.45416 68.9779ZM97.832 1.11364C96.7202 0.368549 95.4075 -0.0196824 94.0692 0.000768339C79.8728 0.0637611 69.269 1.82966 61.6826 5.46014C59.2355 6.60349 56.9536 8.07111 54.8982 9.82344C54.5387 10.1375 54.2506 10.5248 54.0532 10.9594C53.8559 11.394 53.7538 11.8658 53.7539 12.3432V83.1324C53.7538 83.2949 53.8017 83.4538 53.8915 83.5892C53.9814 83.7246 54.1093 83.8305 54.2591 83.8935C54.4089 83.9565 54.574 83.9739 54.7336 83.9435C54.8933 83.913 55.0404 83.8361 55.1565 83.7224C60.5466 78.368 70.006 73.8913 94.0776 73.8934C95.8597 73.8934 97.5687 73.1855 98.8288 71.9254C100.089 70.6653 98.0588 67.928 97.1139 66.4582L84.2641 51.9595C77.2576 44.054 76.566 34.8015 82.8559 26.3147C88.348 18.9043 94.7978 10.3623 98.0158 6.13643C99.2254 4.54808 99.4877 2.22915 97.832 1.11364V1.11364Z" fill="black"/>
</svg>
